<svg width="60" height="84" viewBox="0 0 60 84" fill="none" xmlns="http://www.w3.org/2000/svg">
<path d="M32.0676 15.8934C29.984 16.1069 28.1219 15.5576 26.4815 14.2454C24.8389 12.936 23.9068 11.2541 23.6854 9.19982C23.4639 7.14554 24.0167 5.31022 25.344 3.69387C26.6689 2.08028 28.3732 1.1667 30.4568 0.953153C32.5405 0.739602 34.4036 1.28755 36.0463 2.597C37.6867 3.9092 38.6176 5.59244 38.8391 7.64672C39.0606 9.70101 38.5088 11.5349 37.1839 13.1485C35.8567 14.7649 34.1512 15.6798 32.0676 15.8934ZM19.4148 83.276C18.0257 83.4183 16.8868 83.063 15.9981 82.21C15.1069 81.3573 14.7487 80.2611 14.9235 78.9214L19.8775 24.5066C20.0617 22.6625 20.768 21.2205 21.9965 20.1808C23.2253 19.1435 24.5658 18.5504 26.018 18.4016C27.4703 18.2527 28.8462 18.4264 30.1458 18.9226C31.4429 19.4191 32.5374 20.251 33.4293 21.4183L37.862 27.0061C39.1932 28.6949 40.838 30.1779 42.7963 31.455C44.7524 32.7348 46.9355 33.5974 49.3455 34.0427L48.9327 30.2143C48.8455 29.405 49.041 28.7078 49.5192 28.1225C50.0003 27.5395 50.6512 27.2059 51.472 27.1218C52.2929 27.0377 53.0007 27.232 53.5956 27.7047C54.1882 28.1802 54.5281 28.8226 54.6154 29.6319L59.649 76.3201C59.7362 77.1294 59.5407 77.8267 59.0625 78.4119C58.5814 78.9949 57.9305 79.3285 57.1097 79.4126C56.2888 79.4968 55.581 79.3024 54.9861 78.8297C54.3935 78.3542 54.0536 77.7118 53.9663 76.9025L50.1811 41.793C47.0765 41.4188 44.1493 40.6174 41.3994 39.3887C38.6496 38.16 36.2101 36.5533 34.081 34.5687L33.016 46.0068L39.1677 50.6632C40.0059 51.3326 40.6795 52.0968 41.1883 52.9561C41.6949 53.818 42.0053 54.7781 42.1194 55.8364L44.3946 76.9395C44.5087 77.9977 44.2418 78.9213 43.594 79.7103C42.9439 80.5019 42.0822 80.9528 41.0088 81.0628C39.9354 81.1728 38.9977 80.9064 38.1955 80.2636C37.3911 79.6235 36.9318 78.7743 36.8177 77.716L34.8043 59.0407L26.0432 52.386L22.8065 80.0961C22.7043 80.9248 22.3345 81.6399 21.6972 82.2415C21.0595 82.8405 20.2987 83.1854 19.4148 83.276ZM12.1234 46.732L14.4793 20.6227L10.032 20.2288C7.97127 20.0624 6.11893 20.6449 4.47503 21.9765C2.83139 23.3106 1.92753 24.9931 1.76345 27.0239L0.502676 41.9753C0.427349 43.0529 0.719053 43.9822 1.37779 44.7631C2.03679 45.5465 2.88148 45.9798 3.91187 46.063L12.1234 46.732Z" fill="black"/>
</svg>
