<svg width="55" height="74" viewBox="0 0 55 74" fill="none" xmlns="http://www.w3.org/2000/svg">
<path d="M29.4067 1.01743C29.1974 0.704455 28.9139 0.447836 28.5812 0.27035C28.2486 0.0928637 27.8772 0 27.5 0C27.1228 0 26.7514 0.0928637 26.4187 0.27035C26.0861 0.447836 25.8026 0.704455 25.5933 1.01743L11.8433 21.5843C11.6136 21.9285 11.4819 22.3283 11.4621 22.7412C11.4423 23.154 11.5352 23.5646 11.7308 23.929C11.9265 24.2934 12.2176 24.5981 12.5732 24.8105C12.9287 25.023 13.3354 25.1353 13.75 25.1356H14.1991L4.9316 39.9209C4.71479 40.2668 4.59479 40.6643 4.58405 41.0721C4.57332 41.4798 4.67224 41.8831 4.87054 42.2398C5.06885 42.5966 5.35932 42.894 5.71178 43.101C6.06425 43.3081 6.46587 43.4173 6.87494 43.4173H7.75036L0.242841 58.39C0.0677649 58.7384 -0.0150566 59.1256 0.00224819 59.5149C0.019553 59.9042 0.136409 60.2827 0.34171 60.6143C0.547012 60.9458 0.833938 61.2196 1.17522 61.4094C1.5165 61.5993 1.9008 61.6989 2.2916 61.6989H22.9167V73.125H32.0833V61.6989H52.7084C53.0992 61.6989 53.4835 61.5993 53.8248 61.4094C54.1661 61.2196 54.453 60.9458 54.6583 60.6143C54.8636 60.2827 54.9804 59.9042 54.9978 59.5149C55.0151 59.1256 54.9322 58.7384 54.7572 58.39L47.2542 43.4173H48.1296C48.5387 43.4173 48.9403 43.3081 49.2928 43.101C49.6453 42.894 49.9357 42.5966 50.134 42.2398C50.3323 41.8831 50.4313 41.4798 50.4205 41.0721C50.4098 40.6643 50.2898 40.2668 50.073 39.9209L40.8009 25.1356H41.25C41.6646 25.1353 42.0713 25.023 42.4268 24.8105C42.7824 24.5981 43.0735 24.2934 43.2692 23.929C43.4648 23.5646 43.5577 23.154 43.5379 22.7412C43.5181 22.3283 43.3864 21.9285 43.1567 21.5843L29.4067 1.01743V1.01743ZM20.3362 21.7443C20.1383 21.3874 19.8481 21.0898 19.4959 20.8825C19.1437 20.6751 18.7423 20.5656 18.3333 20.5651H18.0308L27.5 6.40139L36.9692 20.5651H36.6667C36.2576 20.5651 35.856 20.6743 35.5035 20.8814C35.1511 21.0884 34.8606 21.3858 34.6623 21.7425C34.464 22.0993 34.3651 22.5025 34.3758 22.9103C34.3865 23.3181 34.5065 23.7156 34.7234 24.0615L43.9909 38.8468H43.5417C43.1509 38.8468 42.7666 38.9465 42.4253 39.1364C42.0841 39.3262 41.7971 39.5999 41.5918 39.9315C41.3865 40.2631 41.2697 40.6415 41.2524 41.0308C41.2351 41.4202 41.3179 41.8074 41.493 42.1558L48.9959 57.1285H5.99952L13.507 42.1558C13.6821 41.8074 13.7649 41.4202 13.7476 41.0308C13.7303 40.6415 13.6135 40.2631 13.4082 39.9315C13.2029 39.5999 12.9159 39.3262 12.5747 39.1364C12.2334 38.9465 11.8491 38.8468 11.4583 38.8468H11.0091L20.2766 24.0615C20.4929 23.7157 20.6125 23.3184 20.6229 22.911C20.6334 22.5036 20.5344 22.1007 20.3362 21.7443V21.7443Z" fill="black"/>
</svg>
