<svg width="72" height="69" viewBox="0 0 72 69" fill="none" xmlns="http://www.w3.org/2000/svg">
<path d="M0 65.4811V54.9244C0 54.1619 0.12 53.4288 0.36 52.725C0.6 52.0213 0.96 51.3468 1.44 50.7017L31.5 11.1139L27.36 5.65958C27.06 5.24904 26.85 4.82326 26.73 4.38222C26.61 3.94353 26.58 3.50366 26.64 3.06263C26.7 2.62394 26.85 2.19932 27.09 1.78878C27.33 1.37824 27.66 1.02635 28.08 0.733106C28.92 0.146621 29.82 -0.0879728 30.78 0.0293243C31.74 0.146621 32.52 0.615809 33.12 1.43689L36 5.21972L38.88 1.43689C39.48 0.615809 40.26 0.146621 41.22 0.0293243C42.18 -0.0879728 43.08 0.146621 43.92 0.733106C44.76 1.31959 45.24 2.08202 45.36 3.0204C45.48 3.95878 45.24 4.8385 44.64 5.65958L40.5 11.1139L70.56 50.7017C71.04 51.3468 71.4 52.0213 71.64 52.725C71.88 53.4288 72 54.1619 72 54.9244V65.4811C72 66.4781 71.6544 67.3133 70.9632 67.9866C70.2744 68.6622 69.42 69 68.4 69H3.6C2.58 69 1.7256 68.6622 1.0368 67.9866C0.3456 67.3133 0 66.4781 0 65.4811ZM36 17.0081L7.2 54.9244V61.9622H18L33.03 41.3765C33.75 40.3795 34.74 39.881 36 39.881C37.26 39.881 38.25 40.3795 38.97 41.3765L54 61.9622H64.8V54.9244L36 17.0081ZM26.82 61.9622H45.18L36 49.47L26.82 61.9622ZM38.97 41.3765L54 61.9622L38.97 41.3765C38.25 40.3795 37.26 39.881 36 39.881C34.74 39.881 33.75 40.3795 33.03 41.3765L18 61.9622L33.03 41.3765C33.75 40.3795 34.74 39.881 36 39.881C37.26 39.881 38.25 40.3795 38.97 41.3765Z" fill="black"/>
</svg>
