<svg width="162" height="162" viewBox="0 0 162 162" fill="none" xmlns="http://www.w3.org/2000/svg">
<circle cx="81" cy="81" r="79.5" fill="white" stroke="black" stroke-width="3"/>
<path fill-rule="evenodd" clip-rule="evenodd" d="M65.6168 23.0509C65.7767 23.1251 65.8917 23.2715 65.9263 23.445L68.3427 35.5721L135.371 71.5643C135.589 71.6811 135.702 71.9288 135.65 72.1709C135.597 72.4129 135.391 72.5904 135.145 72.6055L119.973 73.5339L129.807 81.9295C129.99 82.0864 130.051 82.345 129.957 82.568C129.863 82.791 129.635 82.9265 129.395 82.9025L116.311 81.5944L153.79 111.337C154.016 111.515 154.067 111.838 153.907 112.078C153.748 112.318 153.432 112.395 153.181 112.255L106.952 86.4374L102.274 86.3462L85.734 87.9208C85.7216 88.0132 85.6858 88.1038 85.6253 88.1831L80.9263 94.3492L110.921 100.147C111.009 100.164 111.092 100.202 111.162 100.259L131.288 116.52L140.024 110.842C140.279 110.676 140.621 110.749 140.786 111.006C140.951 111.263 140.878 111.605 140.623 111.772L131.562 117.66C131.555 117.665 131.548 117.669 131.541 117.674L118.872 125.911C118.617 126.077 118.275 126.004 118.11 125.747C117.945 125.49 118.018 125.147 118.273 124.981L130.313 117.153L110.578 101.208L3.4471 80.5009C3.14821 80.4432 2.95253 80.1529 3.01002 79.8525C3.06752 79.5522 3.35641 79.3556 3.6553 79.4133L63.7823 91.0354C63.7924 91.0085 63.8047 90.982 63.8193 90.9562L66.9686 85.4011L56.2191 75.478C56.201 75.4613 56.1841 75.4435 56.1684 75.4245L46.8171 64.1363C46.7346 64.0368 46.6895 63.9114 46.6895 63.782V46.7006L36.3532 45.038C36.1351 45.0029 35.9589 44.8403 35.9055 44.6249C35.8522 44.4095 35.932 44.1829 36.1083 44.0492L43.1582 38.7021L43.0463 35.781C43.0383 35.5727 43.1474 35.3775 43.3286 35.276L65.1176 23.0701C65.2714 22.9839 65.4569 22.9768 65.6168 23.0509ZM67.8013 86.1698L64.9184 91.255L79.8477 94.1407C79.8455 94.0199 79.8824 93.8974 79.9612 93.794L84.3355 88.0539L71.4415 89.2814C71.286 89.2962 71.1317 89.2441 71.0167 89.138L67.8013 86.1698ZM44.1606 36.0779L44.2706 38.9485C44.2776 39.1296 44.1959 39.3026 44.0519 39.4118L37.805 44.1499L47.3277 45.6816C47.595 45.7246 47.7917 45.9564 47.7917 46.2284V63.5817L56.9919 74.6875L71.5817 88.1556L102.201 85.2407C102.222 85.2387 102.243 85.2379 102.264 85.2383L107.11 85.3327C107.2 85.3345 107.289 85.3584 107.367 85.4024L147.752 107.956L114.149 81.2906C113.957 81.1381 113.888 80.8767 113.98 80.6486C114.071 80.4206 114.302 80.2806 114.545 80.3049L127.748 81.6248L118.216 73.4869C118.044 73.3405 117.979 73.1042 118.05 72.8898C118.121 72.6753 118.315 72.5259 118.539 72.5121L133.134 71.6189L67.5937 36.4256C67.4484 36.3476 67.3454 36.2083 67.3131 36.0459L64.994 24.4073L44.1606 36.0779Z" fill="black"/>
<path fill-rule="evenodd" clip-rule="evenodd" d="M65.6168 23.0509C65.7767 23.1251 65.8917 23.2715 65.9263 23.445L68.3427 35.5721L135.371 71.5643C135.589 71.6811 135.702 71.9288 135.65 72.1709C135.597 72.4129 135.391 72.5904 135.145 72.6055L119.973 73.5339L129.807 81.9295C129.99 82.0864 130.051 82.345 129.957 82.568C129.863 82.791 129.635 82.9265 129.395 82.9025L116.311 81.5944L153.79 111.337C154.016 111.515 154.067 111.838 153.907 112.078C153.748 112.318 153.432 112.395 153.181 112.255L106.952 86.4374L102.274 86.3462L85.734 87.9208C85.7216 88.0132 85.6858 88.1038 85.6253 88.1831L80.9263 94.3492L110.921 100.147C111.009 100.164 111.092 100.202 111.162 100.259L131.288 116.52L140.024 110.842C140.279 110.676 140.621 110.749 140.786 111.006C140.951 111.263 140.878 111.605 140.623 111.772L131.562 117.66C131.555 117.665 131.548 117.669 131.541 117.674L118.872 125.911C118.617 126.077 118.275 126.004 118.11 125.747C117.945 125.49 118.018 125.147 118.273 124.981L130.313 117.153L110.578 101.208L3.4471 80.5009C3.14821 80.4432 2.95253 80.1529 3.01002 79.8525C3.06752 79.5522 3.35641 79.3556 3.6553 79.4133L63.7823 91.0354C63.7924 91.0085 63.8047 90.982 63.8193 90.9562L66.9686 85.4011L56.2191 75.478C56.201 75.4613 56.1841 75.4435 56.1684 75.4245L46.8171 64.1363C46.7346 64.0368 46.6895 63.9114 46.6895 63.782V46.7006L36.3532 45.038C36.1351 45.0029 35.9589 44.8403 35.9055 44.6249C35.8522 44.4095 35.932 44.1829 36.1083 44.0492L43.1582 38.7021L43.0463 35.781C43.0383 35.5727 43.1474 35.3775 43.3286 35.276L65.1176 23.0701C65.2714 22.9839 65.4569 22.9768 65.6168 23.0509ZM67.8013 86.1698L64.9184 91.255L79.8477 94.1407C79.8455 94.0199 79.8824 93.8974 79.9612 93.794L84.3355 88.0539L71.4415 89.2814C71.286 89.2962 71.1317 89.2441 71.0167 89.138L67.8013 86.1698ZM44.1606 36.0779L44.2706 38.9485C44.2776 39.1296 44.1959 39.3026 44.0519 39.4118L37.805 44.1499L47.3277 45.6816C47.595 45.7246 47.7917 45.9564 47.7917 46.2284V63.5817L56.9919 74.6875L71.5817 88.1556L102.201 85.2407C102.222 85.2387 102.243 85.2379 102.264 85.2383L107.11 85.3327C107.2 85.3345 107.289 85.3584 107.367 85.4024L147.752 107.956L114.149 81.2906C113.957 81.1381 113.888 80.8767 113.98 80.6486C114.071 80.4206 114.302 80.2806 114.545 80.3049L127.748 81.6248L118.216 73.4869C118.044 73.3405 117.979 73.1042 118.05 72.8898C118.121 72.6753 118.315 72.5259 118.539 72.5121L133.134 71.6189L67.5937 36.4256C67.4484 36.3476 67.3454 36.2083 67.3131 36.0459L64.994 24.4073L44.1606 36.0779Z" fill="black" fill-opacity="0.2"/>
<path fill-rule="evenodd" clip-rule="evenodd" d="M65.6168 23.0509C65.7767 23.1251 65.8917 23.2715 65.9263 23.445L68.3427 35.5721L135.371 71.5643C135.589 71.6811 135.702 71.9288 135.65 72.1709C135.597 72.4129 135.391 72.5904 135.145 72.6055L119.973 73.5339L129.807 81.9295C129.99 82.0864 130.051 82.345 129.957 82.568C129.863 82.791 129.635 82.9265 129.395 82.9025L116.311 81.5944L153.79 111.337C154.016 111.515 154.067 111.838 153.907 112.078C153.748 112.318 153.432 112.395 153.181 112.255L106.952 86.4374L102.274 86.3462L85.734 87.9208C85.7216 88.0132 85.6858 88.1038 85.6253 88.1831L80.9263 94.3492L110.921 100.147C111.009 100.164 111.092 100.202 111.162 100.259L131.288 116.52L140.024 110.842C140.279 110.676 140.621 110.749 140.786 111.006C140.951 111.263 140.878 111.605 140.623 111.772L131.562 117.66C131.555 117.665 131.548 117.669 131.541 117.674L118.872 125.911C118.617 126.077 118.275 126.004 118.11 125.747C117.945 125.49 118.018 125.147 118.273 124.981L130.313 117.153L110.578 101.208L3.4471 80.5009C3.14821 80.4432 2.95253 80.1529 3.01002 79.8525C3.06752 79.5522 3.35641 79.3556 3.6553 79.4133L63.7823 91.0354C63.7924 91.0085 63.8047 90.982 63.8193 90.9562L66.9686 85.4011L56.2191 75.478C56.201 75.4613 56.1841 75.4435 56.1684 75.4245L46.8171 64.1363C46.7346 64.0368 46.6895 63.9114 46.6895 63.782V46.7006L36.3532 45.038C36.1351 45.0029 35.9589 44.8403 35.9055 44.6249C35.8522 44.4095 35.932 44.1829 36.1083 44.0492L43.1582 38.7021L43.0463 35.781C43.0383 35.5727 43.1474 35.3775 43.3286 35.276L65.1176 23.0701C65.2714 22.9839 65.4569 22.9768 65.6168 23.0509ZM67.8013 86.1698L64.9184 91.255L79.8477 94.1407C79.8455 94.0199 79.8824 93.8974 79.9612 93.794L84.3355 88.0539L71.4415 89.2814C71.286 89.2962 71.1317 89.2441 71.0167 89.138L67.8013 86.1698ZM44.1606 36.0779L44.2706 38.9485C44.2776 39.1296 44.1959 39.3026 44.0519 39.4118L37.805 44.1499L47.3277 45.6816C47.595 45.7246 47.7917 45.9564 47.7917 46.2284V63.5817L56.9919 74.6875L71.5817 88.1556L102.201 85.2407C102.222 85.2387 102.243 85.2379 102.264 85.2383L107.11 85.3327C107.2 85.3345 107.289 85.3584 107.367 85.4024L147.752 107.956L114.149 81.2906C113.957 81.1381 113.888 80.8767 113.98 80.6486C114.071 80.4206 114.302 80.2806 114.545 80.3049L127.748 81.6248L118.216 73.4869C118.044 73.3405 117.979 73.1042 118.05 72.8898C118.121 72.6753 118.315 72.5259 118.539 72.5121L133.134 71.6189L67.5937 36.4256C67.4484 36.3476 67.3454 36.2083 67.3131 36.0459L64.994 24.4073L44.1606 36.0779Z" stroke="black" stroke-width="2" stroke-linecap="round" stroke-linejoin="round"/>
<path fill-rule="evenodd" clip-rule="evenodd" d="M64.2305 46.0984C64.3957 45.9845 64.6123 45.9683 64.7936 46.0561L97.6968 61.9936C97.9274 62.1053 98.0465 62.3574 97.9831 62.5995C97.9196 62.8415 97.6908 63.0081 97.4331 62.9997L66.5364 61.9934C66.268 61.9847 66.0457 61.789 66.011 61.5311L64.0046 46.5998C63.9784 46.4051 64.0653 46.2122 64.2305 46.0984ZM65.2253 47.4531L67.0385 60.9467L94.9604 61.8561L65.2253 47.4531Z" fill="black"/>
<path fill-rule="evenodd" clip-rule="evenodd" d="M64.2305 46.0984C64.3957 45.9845 64.6123 45.9683 64.7936 46.0561L97.6968 61.9936C97.9274 62.1053 98.0465 62.3574 97.9831 62.5995C97.9196 62.8415 97.6908 63.0081 97.4331 62.9997L66.5364 61.9934C66.268 61.9847 66.0457 61.789 66.011 61.5311L64.0046 46.5998C63.9784 46.4051 64.0653 46.2122 64.2305 46.0984ZM65.2253 47.4531L67.0385 60.9467L94.9604 61.8561L65.2253 47.4531Z" fill="black" fill-opacity="0.2"/>
<path fill-rule="evenodd" clip-rule="evenodd" d="M64.2305 46.0984C64.3957 45.9845 64.6123 45.9683 64.7936 46.0561L97.6968 61.9936C97.9274 62.1053 98.0465 62.3574 97.9831 62.5995C97.9196 62.8415 97.6908 63.0081 97.4331 62.9997L66.5364 61.9934C66.268 61.9847 66.0457 61.789 66.011 61.5311L64.0046 46.5998C63.9784 46.4051 64.0653 46.2122 64.2305 46.0984ZM65.2253 47.4531L67.0385 60.9467L94.9604 61.8561L65.2253 47.4531Z" stroke="black" stroke-width="2" stroke-linecap="round" stroke-linejoin="round"/>
</svg>
